<?xml version="1.0" encoding="iso-8859-1"?>
<svg version="1.1" id="Capa_1" xmlns="http://www.w3.org/2000/svg" xmlns:xlink="http://www.w3.org/1999/xlink" x="0px" y="0px"
	 viewBox="0 0 512 512" style="enable-background:new 0 0 512 512;" xml:space="preserve">
<path style="fill:#90a4ae;" d="M502.257,222.792c-0.532-3.955-3.985-6.873-7.975-6.873h-33.753
	c-5.411-27.767-16.302-53.573-31.553-76.212l23.857-23.857c2.821-2.822,3.199-7.327,0.78-10.5
	c-6.648-8.716-13.93-17.101-21.897-25.067c-7.965-7.965-16.35-15.248-25.067-21.896c-3.172-2.42-7.678-2.042-10.5,0.78
	l-23.857,23.857c-22.639-15.251-48.445-26.142-76.212-31.553V17.717c0-3.99-2.918-7.443-6.873-7.975
	C278.344,8.279,267.265,7.5,256,7.5c-11.265,0-22.344,0.779-33.207,2.242c-3.955,0.532-6.873,3.985-6.873,7.975v33.754
	c-27.767,5.411-53.573,16.302-76.212,31.553L115.85,59.167c-2.822-2.822-7.327-3.2-10.5-0.78
	c-8.716,6.648-17.101,13.931-25.067,21.896c-7.966,7.966-15.248,16.351-21.896,25.067c-2.42,3.173-2.042,7.678,0.779,10.5
	l23.857,23.857c-15.25,22.64-26.141,48.445-31.552,76.212H17.717c-3.99,0-7.443,2.918-7.975,6.873C8.28,233.656,7.5,244.735,7.5,256
	c0,11.265,0.78,22.344,2.242,33.207c0.532,3.955,3.985,6.873,7.975,6.873h33.754c5.411,27.767,16.302,53.573,31.553,76.212
	L59.167,396.15c-2.822,2.822-3.199,7.326-0.779,10.499c6.648,8.716,13.93,17.102,21.896,25.067
	c7.965,7.965,16.351,15.248,25.067,21.896c3.173,2.42,7.678,2.042,10.5-0.779l23.857-23.857
	c22.639,15.251,48.446,26.142,76.212,31.553v33.754c0,3.99,2.918,7.443,6.873,7.976c10.864,1.462,21.943,2.242,33.207,2.242
	c11.265,0,22.344-0.78,33.207-2.242c3.955-0.532,6.873-3.985,6.873-7.976v-33.754c27.767-5.411,53.573-16.302,76.212-31.553
	l23.857,23.857c2.822,2.822,7.327,3.199,10.5,0.779c8.717-6.648,17.102-13.93,25.067-21.896
	c7.966-7.965,15.248-16.351,21.897-25.067c2.419-3.173,2.041-7.678-0.78-10.499l-23.857-23.857
	c15.25-22.639,26.141-48.446,31.553-76.212h33.753c3.99,0,7.443-2.918,7.975-6.873c1.463-10.864,2.243-21.943,2.243-33.207
	C504.5,244.735,503.72,233.656,502.257,222.792z M256,408.306c-84.117,0-152.306-68.19-152.306-152.306S171.883,103.694,256,103.694
	S408.306,171.883,408.306,256S340.117,408.306,256,408.306z"/>
<path style="fill:#3c6b6e;" d="M288.065,239.968c0-20.216-18.708-36.062-39.756-31.17c-11.365,2.641-20.616,11.792-23.387,23.126
	c-3.35,13.702,2.145,26.257,11.855,33.545c1.913,1.436,3.192,3.554,3.192,5.945v31.825c0,7.986,5.457,15.388,13.34,16.671
	c10.044,1.634,18.725-6.076,18.725-15.813v-32.842c0-2.291,1.224-4.324,3.063-5.69C282.938,259.738,288.065,250.491,288.065,239.968
	z"/>
<path style="fill:#9C969E;" d="M497.698,295.231c2.377-1.12,4.191-3.286,4.559-6.024c0.19-1.415,0.268-2.864,0.434-4.286
	C501.118,288.41,499.456,291.848,497.698,295.231z"/>
<path style="fill:#90a4ae;" d="M248.309,232.846c16.599-3.858,31.701,5.204,37.36,19.113c1.521-3.699,2.395-7.731,2.395-11.991
	c0-20.216-18.708-36.062-39.756-31.17c-11.366,2.641-20.616,11.792-23.387,23.126c-1.746,7.137-1.049,13.941,1.35,19.873
	C230.062,242.434,238.377,235.154,248.309,232.846z"/>
<path style="fill:#3c6b6e;" d="M452.833,396.15l-23.854-23.854c-10.9,7.344-22.541,13.656-34.783,18.83
	c-8.906,3.764-16.537-7.149-9.901-14.181c33.463-35.458,52.39-84.771,47.214-138.45c-7.994-82.902-75.089-150.003-157.991-158.002
	c-53.685-5.181-103.004,13.749-138.466,47.216c-7.032,6.636-17.945-0.995-14.181-9.901c5.175-12.243,11.488-23.885,18.832-34.786
	L115.85,59.168c-2.822-2.822-7.327-3.2-10.5-0.78c-8.716,6.647-17.101,13.931-25.067,21.896S65.035,96.635,58.387,105.35
	c-2.42,3.173-2.043,7.679,0.779,10.501l23.857,23.857c-15.25,22.64-26.141,48.445-31.553,76.212H17.718
	c-3.99,0-7.442,2.918-7.975,6.872C8.28,233.656,7.5,244.735,7.5,256c0,11.265,0.78,22.344,2.243,33.208
	c0.533,3.954,3.985,6.872,7.975,6.872h33.753c5.411,27.767,16.302,53.573,31.554,76.212L59.167,396.15
	c-2.822,2.822-3.199,7.326-0.779,10.499c6.648,8.717,13.93,17.102,21.896,25.067c7.965,7.965,16.351,15.248,25.067,21.896
	c3.173,2.42,7.678,2.042,10.499-0.78l23.857-23.857c22.639,15.251,48.445,26.142,76.212,31.553v33.754
	c0,3.991,2.918,7.443,6.873,7.976c10.864,1.462,21.942,2.242,33.207,2.242s22.344-0.78,33.207-2.242
	c3.955-0.532,6.873-3.985,6.873-7.976v-33.754c27.767-5.411,53.573-16.302,76.212-31.553l23.857,23.857
	c2.822,2.822,7.326,3.199,10.499,0.78c8.717-6.648,17.102-13.931,25.067-21.896c7.966-7.965,15.248-16.35,21.896-25.065
	C456.032,403.477,455.655,398.972,452.833,396.15z M256,408.306c-84.117,0-152.306-68.19-152.306-152.306
	S171.883,103.694,256,103.694S408.306,171.883,408.306,256S340.117,408.306,256,408.306z"/>
<path d="M509.691,221.792c-1.026-7.623-7.65-13.372-15.408-13.372h-27.664c-5.413-24.122-14.821-46.846-28.034-67.715l19.55-19.551
	c5.486-5.485,6.105-14.234,1.44-20.352c-6.964-9.131-14.553-17.819-22.556-25.822c-8.004-8.004-16.691-15.593-25.821-22.556
	c-6.118-4.666-14.868-4.046-20.351,1.44l-19.551,19.551c-20.869-13.213-43.593-22.622-67.715-28.034V17.717
	c0-7.758-5.749-14.382-13.372-15.408C278.829,0.777,267.32,0,256,0s-22.829,0.777-34.208,2.309
	c-7.624,1.026-13.373,7.65-13.373,15.408v27.664c-24.122,5.413-46.847,14.821-67.715,28.034l-19.55-19.55
	c-5.485-5.487-14.233-6.107-20.352-1.441c-9.13,6.963-17.817,14.552-25.821,22.556c-8.003,8.003-15.592,16.69-22.556,25.822
	c-4.666,6.117-4.046,14.866,1.439,20.351l19.551,19.551c-13.213,20.869-22.621,43.594-28.034,67.715H17.717
	c-7.758,0-14.382,5.749-15.408,13.372C0.777,233.174,0,244.684,0,256c0,11.316,0.777,22.825,2.309,34.208
	c1.026,7.624,7.65,13.373,15.408,13.373h27.664c5.413,24.122,14.821,46.846,28.034,67.714l-19.551,19.551
	c-5.486,5.485-6.105,14.234-1.44,20.351c6.964,9.132,14.553,17.819,22.556,25.822c8.002,8.002,16.69,15.591,25.821,22.556
	c6.118,4.666,14.867,4.046,20.351-1.439l19.551-19.551c20.868,13.213,43.593,22.621,67.715,28.034v27.664
	c0,7.758,5.749,14.382,13.373,15.409C233.175,511.223,244.684,512,256,512c11.316,0,22.825-0.777,34.208-2.309
	c7.624-1.026,13.373-7.65,13.373-15.409v-27.664c24.122-5.413,46.846-14.821,67.715-28.034l19.551,19.55
	c5.486,5.486,14.235,6.106,20.352,1.44c9.131-6.964,17.819-14.553,25.821-22.556c8.003-8.002,15.592-16.69,22.556-25.822
	c4.666-6.117,4.046-14.866-1.439-20.351l-19.551-19.551c13.213-20.868,22.621-43.593,28.034-67.715h27.664
	c7.758,0,14.382-5.749,15.408-13.373C511.223,278.825,512,267.316,512,256C512,244.684,511.223,233.174,509.691,221.792z
	 M494.825,288.207c-0.023,0.176-0.26,0.374-0.542,0.374h-33.754c-3.589,0-6.675,2.543-7.361,6.065
	c-5.151,26.433-15.383,51.147-30.412,73.457c-2.005,2.977-1.621,6.956,0.917,9.494l23.857,23.857
	c0.199,0.199,0.227,0.505,0.119,0.647c-6.56,8.601-13.705,16.781-21.236,24.312s-15.71,14.675-24.312,21.235
	c-0.142,0.108-0.449,0.08-0.648-0.119l-23.857-23.856c-2.538-2.538-6.517-2.922-9.494-0.917
	c-22.31,15.029-47.024,25.261-73.457,30.412c-3.522,0.686-6.065,3.772-6.065,7.361v33.754c0,0.282-0.197,0.519-0.374,0.542
	C277.485,496.268,266.649,497,256,497s-21.485-0.732-32.207-2.175c-0.176-0.023-0.374-0.261-0.374-0.542v-33.754
	c0-3.589-2.543-6.675-6.065-7.361c-26.433-5.151-51.147-15.383-73.457-30.412c-1.276-0.859-2.736-1.28-4.188-1.28
	c-1.935,0-3.856,0.747-5.306,2.197l-23.857,23.857c-0.2,0.199-0.506,0.227-0.647,0.119c-8.601-6.56-16.781-13.705-24.312-21.236
	c-7.531-7.53-14.676-15.71-21.236-24.312c-0.108-0.142-0.08-0.448,0.119-0.647l23.857-23.857c2.538-2.538,2.922-6.517,0.917-9.494
	c-15.029-22.31-25.261-47.024-30.412-73.456c-0.686-3.522-3.772-6.065-7.361-6.065H17.717c-0.282,0-0.519-0.197-0.542-0.374
	C15.732,277.485,15,266.649,15,256c0-10.649,0.732-21.485,2.175-32.208c0.023-0.176,0.26-0.373,0.542-0.373h33.754
	c3.589,0,6.675-2.543,7.361-6.065c5.15-26.432,15.382-51.146,30.411-73.457c2.005-2.976,1.621-6.956-0.917-9.493L64.47,110.546
	c-0.199-0.199-0.227-0.506-0.119-0.647c6.56-8.601,13.705-16.781,21.236-24.312c7.532-7.532,15.712-14.677,24.312-21.236
	c0.142-0.108,0.448-0.08,0.648,0.12l23.857,23.856c2.538,2.537,6.518,2.922,9.494,0.917c22.31-15.029,47.024-25.261,73.457-30.412
	c3.522-0.686,6.065-3.772,6.065-7.361V17.717c0-0.282,0.197-0.519,0.374-0.542C234.512,15.732,245.348,15,256,15
	c10.652,0,21.488,0.732,32.207,2.175c0.176,0.023,0.374,0.26,0.374,0.542v33.754c0,3.589,2.543,6.675,6.065,7.361
	c26.432,5.151,51.146,15.382,73.457,30.412c2.977,2.005,6.957,1.621,9.494-0.917l23.858-23.857c0.2-0.199,0.506-0.227,0.647-0.119
	c8.6,6.559,16.779,13.704,24.312,21.236c7.531,7.531,14.676,15.711,21.236,24.312c0.108,0.142,0.08,0.449-0.119,0.648
	l-23.856,23.857c-2.538,2.538-2.922,6.517-0.917,9.494c15.029,22.31,25.261,47.024,30.412,73.457
	c0.686,3.522,3.772,6.065,7.361,6.065h33.754c0.282,0,0.519,0.197,0.542,0.373C496.268,234.515,497,245.351,497,256
	C497,266.649,496.268,277.485,494.825,288.207z"/>
<path d="M111.38,248.834c1.763-35.941,16.759-69.76,42.227-95.228s59.287-40.464,95.228-42.227
	c35.688-1.754,70.564,9.621,98.198,32.019c3.219,2.608,7.941,2.113,10.549-1.104c2.608-3.218,2.114-7.941-1.104-10.549
	c-30.507-24.726-68.999-37.278-108.378-35.347C208.431,98.343,171.106,114.894,143,143s-44.657,65.431-46.602,105.099
	c-1.932,39.382,10.622,77.872,35.347,108.378c1.482,1.829,3.647,2.778,5.831,2.778c1.659,0,3.329-0.548,4.718-1.674
	c3.218-2.608,3.712-7.331,1.104-10.549C121,319.398,109.629,284.524,111.38,248.834z"/>
<path d="M369.706,154.418c-3.218,2.608-3.712,7.331-1.104,10.549c22.398,27.634,33.769,62.508,32.019,98.198
	c-1.763,35.941-16.759,69.76-42.227,95.228s-59.287,40.464-95.228,42.227c-35.691,1.757-70.564-9.621-98.198-32.019
	c-3.218-2.607-7.94-2.113-10.549,1.104c-2.608,3.218-2.114,7.941,1.104,10.549c28.462,23.069,63.871,35.541,100.472,35.541
	c2.629,0,5.267-0.064,7.906-0.194C303.569,413.657,340.894,397.106,369,369s44.657-65.431,46.602-105.099
	c1.932-39.382-10.622-77.872-35.347-108.378C377.646,152.305,372.923,151.811,369.706,154.418z"/>
<path d="M256,327.629c12.976,0,23.532-10.557,23.532-23.532v-32.489c9.985-7.423,16.032-19.183,16.032-31.64
	c0-21.816-17.749-39.564-39.564-39.564s-39.564,17.749-39.564,39.564c0,12.458,6.047,24.217,16.032,31.64v32.489
	C232.468,317.072,243.024,327.629,256,327.629z M231.436,239.968c0-13.545,11.02-24.564,24.564-24.564
	c13.544,0,24.564,11.02,24.564,24.564c0,8.75-4.6,16.651-12.305,21.135c-2.308,1.343-3.728,3.812-3.728,6.482v36.512
	c0,4.705-3.828,8.532-8.532,8.532s-8.532-3.828-8.532-8.532v-36.512c0-2.67-1.419-5.139-3.728-6.482
	C236.036,256.619,231.436,248.718,231.436,239.968z"/>
<g>
</g>
<g>
</g>
<g>
</g>
<g>
</g>
<g>
</g>
<g>
</g>
<g>
</g>
<g>
</g>
<g>
</g>
<g>
</g>
<g>
</g>
<g>
</g>
<g>
</g>
<g>
</g>
<g>
</g>
</svg>
