<?xml version="1.0" encoding="iso-8859-1"?>
<svg version="1.1" id="Capa_1" xmlns="http://www.w3.org/2000/svg" xmlns:xlink="http://www.w3.org/1999/xlink" x="0px" y="0px"
	 viewBox="0 0 512 512" style="enable-background:new 0 0 512 512;" xml:space="preserve">
<path style="fill:#eceff1;" d="M512,256c0,73.435-30.919,139.651-80.457,186.326C385.714,485.533,323.95,512,256,512
	c-68.995,0-131.594-27.282-177.633-71.659C30.051,393.77,0,328.401,0,256C0,114.615,114.615,0,256,0S512,114.615,512,256z"/>
<path style="fill:#eceff1;" d="M462.508,206.508c0,59.238-24.942,112.653-64.903,150.304
	c-36.97,34.854-86.792,56.204-141.606,56.204c-55.656,0-106.153-22.008-143.291-57.806c-38.976-37.567-63.217-90.299-63.217-148.703
	C49.492,92.457,141.948,0,256,0S462.508,92.457,462.508,206.508z"/>
<path style="fill:#607d8b;" d="M431.543,75.515v366.811C385.714,485.533,323.95,512,256,512c-52.13,0-100.613-15.579-141.061-42.339
	c-13.082-8.652-25.318-18.474-36.571-29.32V75.515H431.543z"/>
<path style="fill:#455a64;" d="M114.939,75.515v394.146c-13.082-8.652-25.318-18.474-36.571-29.32V75.515H114.939z"/>
<path style="fill:#455a64;" d="M431.543,27.449v73.143H114.939c-10.094,0-19.247-4.096-25.861-10.71
	c-3.856-3.856-6.855-8.579-8.683-13.845c-1.317-3.762-2.027-7.805-2.027-12.016c0-20.198,16.374-36.571,36.571-36.571H431.543z"/>
<path style="fill:#455a64;" d="M431.543,38.943v73.143H114.939c-10.094,0-19.247-4.096-25.861-10.71
	c-3.856-3.856-6.855-8.579-8.683-13.845c-1.317-3.762-2.027-7.805-2.027-12.016c0-20.198,16.374-36.571,36.571-36.571
	C114.939,38.943,431.543,38.943,431.543,38.943z"/>
<path style="fill:#FFFFFF;" d="M431.543,62.976v49.11H114.939c-10.094,0-19.247-4.096-25.861-10.71
	c-3.856-3.856-6.855-8.579-8.683-13.845c4.963-14.294,18.557-24.555,34.544-24.555C114.939,62.976,431.543,62.976,431.543,62.976z"
	/>
<path style="fill:#263238;" d="M375.608,192.441l-21.235-10.056l-5.369,8.049l0.009,0.009l-20.577,30.863l-15.086,22.629
	l-1.421,2.134l2.387,3.361l12.384,17.418l9.97,14.021c-9.663,17.027-24.638,35.673-41.443,52.478
	c-16.815,16.815-35.461,31.788-52.482,41.447l-14.027-9.975l-20.776-14.766l-55.627,37.084l-8.062,5.365l1.061,2.233l9.001,18.998
	l47.479,19.553l21.141-12.433c0.591-0.348,1.178-0.699,1.768-1.055c19.133-11.409,38.451-25.477,57.048-41.303
	c0.004-0.004,0.004-0.004,0.009-0.009c39.48-33.579,75.703-75.053,99.916-115.662c0.352-0.586,0.699-1.168,1.047-1.76l12.433-21.141
	L375.608,192.441z"/>
<polygon style="fill:#263238;" points="190.397,208.217 163.639,182.094 136.882,208.217 136.882,97.458 190.397,97.458 "/>
<rect x="136.882" y="97.458" style="fill:#263238;" width="53.52" height="14.629"/>
<g>
</g>
<g>
</g>
<g>
</g>
<g>
</g>
<g>
</g>
<g>
</g>
<g>
</g>
<g>
</g>
<g>
</g>
<g>
</g>
<g>
</g>
<g>
</g>
<g>
</g>
<g>
</g>
<g>
</g>
</svg>
